<svg height="512pt" viewBox="0 0 512 512" width="512pt" xmlns="http://www.w3.org/2000/svg"><path d="m448.929688 220.722656c7.726562-12.484375 12.1875-27.199218 12.1875-42.957031 0-45.160156-36.605469-81.765625-81.761719-81.765625-45.160157 0-81.765625 36.605469-81.765625 81.765625 0 15.757813 4.464844 30.472656 12.1875 42.957031-31 11.621094-53.066406 41.519532-53.066406 76.578125 0 45.160157 36.605468 81.765625 81.761718 81.765625 14.894532 0 28.855469-3.984375 40.882813-10.941406 12.027343 6.957031 25.988281 10.941406 40.882812 10.941406 45.15625 0 81.761719-36.605468 81.761719-81.765625 0-35.058593-22.066406-64.957031-53.070312-76.578125zm0 0" fill="#cbe558"/><path d="m10 10h308v40h-308zm0 0" fill="#ffcb7c"/><path d="m18 50h292v452h-292zm0 0" fill="#ffd89e"/><g fill="#dff6fc"><path d="m102 448h-44v-56h44zm0 0"/><path d="m186 448h-44v-56h44zm0 0"/><path d="m270 448h-44v-56h44zm0 0"/><path d="m102 352h-44v-56h44zm0 0"/><path d="m186 352h-44v-56h44zm0 0"/><path d="m270 352h-44v-56h44zm0 0"/><path d="m102 256h-44v-56h44zm0 0"/><path d="m186 256h-44v-56h44zm0 0"/><path d="m270 256h-44v-56h44zm0 0"/><path d="m102 160h-44v-56h44zm0 0"/><path d="m186 160h-44v-56h44zm0 0"/><path d="m270 160h-44v-56h44zm0 0"/></g><path d="m262.1875 502c-4.5-5.367188-7.210938-12.285156-7.210938-19.835938 0-17.070312 13.835938-30.90625 30.90625-30.90625.613282 0 1.222657.019532 1.828126.054688 6.914062-15.78125 22.664062-26.8125 41-26.8125 19.796874 0 36.582031 12.863281 42.476562 30.6875 4.464844-2.5 9.605469-3.929688 15.082031-3.929688 17.070313 0 30.910157 13.835938 30.910157 30.90625 0 7.550782-2.714844 14.46875-7.210938 19.835938zm0 0" fill="#d8ec84"/><path d="m420.234375 389.066406c50.601563 0 91.765625-41.164062 91.765625-91.765625 0-34.238281-19.375-65.628906-49.210938-81.308593 5.472657-11.9375 8.328126-24.960938 8.328126-38.230469 0-50.597657-41.164063-91.761719-91.761719-91.761719-22.183594 0-43.03125 7.835938-59.355469 21.726562v-47.925781c4.5625-.929687 8-4.964843 8-9.800781v-40c0-5.523438-4.476562-10-10-10h-308c-5.523438 0-10 4.476562-10 10v40c0 4.835938 3.4375 8.871094 8 9.800781v442.199219c0 5.523438 4.476562 10 10 10h391.964844c2.960937 0 5.765625-1.308594 7.667968-3.578125 6.152344-7.347656 9.542969-16.671875 9.542969-26.257813 0-21.515624-16.703125-39.195312-37.820312-40.78125v-57.660156c9.859375 3.515625 20.316406 5.34375 30.878906 5.34375zm-40.878906-283.066406c39.570312 0 71.761719 32.191406 71.761719 71.765625 0 13.355469-3.695313 26.390625-10.6875 37.695313-1.574219 2.542968-1.929688 5.660156-.960938 8.492187.964844 2.832031 3.148438 5.082031 5.953125 6.132813 27.859375 10.441406 46.578125 37.457031 46.578125 67.214843 0 39.570313-32.191406 71.765625-71.765625 71.765625-10.71875 0-21.285156-2.40625-30.878906-6.976562v-33.945313l45.390625-45.394531c3.90625-3.90625 3.90625-10.238281 0-14.144531-3.902344-3.902344-10.234375-3.902344-14.140625 0l-31.25 31.253906v-23.851563c0-.003906 0-.007812 0-.011718v-71.660156c0-5.523438-4.480469-10-10-10-5.523438 0-10 4.476562-10 10v47.523437l-8.273438-8.273437c-3.90625-3.902344-10.234375-3.902344-14.144531 0-3.902344 3.90625-3.902344 10.238281 0 14.144531l22.417969 22.414062v43.851563.011718 38.082032c-9.597657 4.570312-20.164063 6.976562-30.882813 6.976562-6.292968 0-12.480468-.8125-18.472656-2.40625v-229.242187c13.410156-19.722657 35.390625-31.417969 59.355469-31.417969zm-10 326.550781c-10.152344-11.253906-24.773438-18.050781-40.648438-18.050781-2.949219 0-5.855469.242188-8.707031.699219v-28.015625c6.046875 1.238281 12.21875 1.882812 18.472656 1.882812 10.566406 0 21.019532-1.828125 30.882813-5.34375zm-341.355469-372.550781h90.667969c5.519531 0 10-4.476562 10-10s-4.480469-10-10-10h-98.667969v-20h288v20h-99.335938c-5.519531 0-10 4.476562-10 10s4.480469 10 10 10h91.335938v362.636719c-7.507812 4.625-13.894531 11.054687-18.480469 18.847656-.507812.054687-1.015625.125-1.519531.199219v-49.683594c0-5.523438-4.476562-10-10-10h-44c-5.523438 0-10 4.476562-10 10v56c0 5.523438 4.476562 10 10 10h26.902344c-4.976563 6.777344-7.925782 15.128906-7.925782 24.164062 0 3.335938.417969 6.636719 1.210938 9.835938h-218.1875zm232 378h-24v-36h24zm147.175781 44.164062c0 3.445313-.855469 6.828126-2.460937 9.835938h-137.277344c-1.601562-3.007812-2.460938-6.390625-2.460938-9.835938 0-11.527343 9.378907-20.90625 20.90625-20.90625.417969 0 .835938.015626 1.246094.039063 4.1875.238281 8.0625-2.136719 9.742188-5.972656 5.539062-12.648438 18.035156-20.824219 31.835937-20.824219 15.015625 0 28.269531 9.574219 32.984375 23.828125.941406 2.832031 3.09375 5.101563 5.875 6.179687 2.78125 1.082032 5.902344.863282 8.507813-.597656 3.101562-1.734375 6.625-2.652344 10.195312-2.652344 11.527344 0 20.90625 9.378907 20.90625 20.90625zm0 0"/><path d="m102 382h-44c-5.523438 0-10 4.476562-10 10v56c0 5.523438 4.476562 10 10 10h44c5.523438 0 10-4.476562 10-10v-56c0-5.523438-4.476562-10-10-10zm-10 56h-24v-36h24zm0 0"/><path d="m186 382h-44c-5.523438 0-10 4.476562-10 10v56c0 5.523438 4.476562 10 10 10h44c5.523438 0 10-4.476562 10-10v-56c0-5.523438-4.476562-10-10-10zm-10 56h-24v-36h24zm0 0"/><path d="m102 286h-44c-5.523438 0-10 4.476562-10 10v56c0 5.523438 4.476562 10 10 10h44c5.523438 0 10-4.476562 10-10v-56c0-5.523438-4.476562-10-10-10zm-10 56h-24v-36h24zm0 0"/><path d="m186 286h-44c-5.523438 0-10 4.476562-10 10v56c0 5.523438 4.476562 10 10 10h44c5.523438 0 10-4.476562 10-10v-56c0-5.523438-4.476562-10-10-10zm-10 56h-24v-36h24zm0 0"/><path d="m226 362h44c5.523438 0 10-4.476562 10-10v-56c0-5.523438-4.476562-10-10-10h-44c-5.523438 0-10 4.476562-10 10v56c0 5.523438 4.476562 10 10 10zm10-56h24v36h-24zm0 0"/><path d="m102 190h-44c-5.523438 0-10 4.476562-10 10v56c0 5.523438 4.476562 10 10 10h44c5.523438 0 10-4.476562 10-10v-56c0-5.523438-4.476562-10-10-10zm-10 56h-24v-36h24zm0 0"/><path d="m186 190h-44c-5.523438 0-10 4.476562-10 10v56c0 5.523438 4.476562 10 10 10h44c5.523438 0 10-4.476562 10-10v-56c0-5.523438-4.476562-10-10-10zm-10 56h-24v-36h24zm0 0"/><path d="m226 266h44c5.523438 0 10-4.476562 10-10v-56c0-5.523438-4.476562-10-10-10h-44c-5.523438 0-10 4.476562-10 10v56c0 5.523438 4.476562 10 10 10zm10-56h24v36h-24zm0 0"/><path d="m102 94h-44c-5.523438 0-10 4.476562-10 10v56c0 5.523438 4.476562 10 10 10h44c5.523438 0 10-4.476562 10-10v-56c0-5.523438-4.476562-10-10-10zm-10 56h-24v-36h24zm0 0"/><path d="m186 94h-44c-5.523438 0-10 4.476562-10 10v56c0 5.523438 4.476562 10 10 10h44c5.523438 0 10-4.476562 10-10v-56c0-5.523438-4.476562-10-10-10zm-10 56h-24v-36h24zm0 0"/><path d="m226 170h44c5.523438 0 10-4.476562 10-10v-56c0-5.523438-4.476562-10-10-10h-44c-5.523438 0-10 4.476562-10 10v56c0 5.523438 4.476562 10 10 10zm10-56h24v36h-24zm0 0"/><path d="m163.671875 60c2.628906 0 5.207031-1.070312 7.066406-2.929688 1.859375-1.859374 2.933594-4.441406 2.933594-7.070312s-1.070313-5.210938-2.933594-7.070312c-1.859375-1.859376-4.4375-2.929688-7.066406-2.929688-2.644531 0-5.210937 1.070312-7.070313 2.929688-1.871093 1.859374-2.929687 4.441406-2.929687 7.070312s1.058594 5.210938 2.929687 7.070312c1.859376 1.859376 4.425782 2.929688 7.070313 2.929688zm0 0"/></svg>