<svg id="Layer_1" data-name="Layer 1" xmlns="http://www.w3.org/2000/svg" viewBox="0 -70 350 460"><defs><style>.cls-1{fill:#4a5068;}.cls-2{fill:#777b8e;}.cls-3{fill:#fefefe;}.cls-4{fill:#fdfdfd;}.cls-5{fill:#f8f8f9;}.cls-6{fill:#f5f6f7;}.cls-7{fill:#f4f4f6;}.cls-8{fill:#fbfcfc;}</style></defs><g id="itEmx5.tif"><path class="cls-1" d="M1385.08,678.73c4.63,8.94,2.92,18.51,2.37,27.84-.27,4.52-3.79,7.57-8.32,8-3.4.33-3.62,1.93-3.51,4.53a23.31,23.31,0,0,1-.77,8.38c-2.15,6.6-8.75,11.26-15.14,10.6A15.43,15.43,0,0,1,1346,724.43c-.34-3.07,1.5-7.06-1-9s-6.42-.6-9.71-.61c-17.77-.07-35.54.07-53.31-.12-3.9,0-5.39,1-5,5,.36,3.81,0,7.62-2,11.08-2.8,4.66-8.76,7.88-13.87,7.1-6.22-.95-10.73-4.13-12.73-10.37a23.76,23.76,0,0,1-.77-8.38c.11-2.64-.33-4.14-3.59-4.61-5.58-.8-8.41-4.29-8.47-9.94-.11-9.89-1.28-20,3.68-29.23,1.41-2.65.22-3.49-2.45-3.56-4.39-.11-8.34.44-12.25,3-10.09,6.68-20.5,12.88-30.77,19.27-2.3,1.43-4.66,2.9-7.39,1.34-2.49-1.43-1.85-4.05-1.86-6.31q-.24-118.78-.45-237.57c0-7.34,2.2-8.85,9.17-6.26,9.47,3.53,18.95,7,28.36,10.69a40.4,40.4,0,0,0,15,2.76c65.1-.1,130.21-.36,195.31.15,14.93.11,28.92-1.83,42.46-8,4.81-2.19,9.89-3.81,14.86-5.65,7.25-2.68,9.06-1.46,9.06,6.12q0,31.63,0,63.26,0,86.91,0,173.82c0,2.49,1.19,5.66-1.84,7.21s-5.74-.21-8.32-1.82c-10.26-6.42-20.71-12.57-30.74-19.32-5.9-4-12.15-2.41-18.32-2.56-2.39-.06-2,2.18-2,3.79-.48,10.62-3.05,13.11-13.58,13.13-5.81,0-11.62,0-17.43,0-10.18,0-13.07-2.92-13.09-13,0-1,0-2,0-3-2.2-2.22-4.94-1-7.44-1.09-1.78-.08-2.08,1.42-1.86,2.8A10.15,10.15,0,0,0,1385.08,678.73Z" transform="translate(-1183.99 -444.01)"/><path class="cls-2" d="M1385.08,678.73c-2.28-2.31-3.71-5.77-.86-7.39,2-1.13,6.54-2.84,8.63,1.63a12.23,12.23,0,0,0-1.43-.32C1384,671.75,1383.93,671.84,1385.08,678.73Z" transform="translate(-1183.99 -444.01)"/><path class="cls-3" d="M1341.13,468.57c34.2,0,68.41.09,102.62-.1,4.57,0,5.82,1.21,5.8,5.81q-.29,89.88-.22,179.76c0,7.89-2.32,9.58-10.25,7.88-2.07-.44-2.16-1.68-2.16-3.23q0-6.48,0-13c0-9.7-3-12.75-12.66-13-2.06,0-4.41.64-4.6-2.85-.19-3.33.66-4.94,4.32-4.64a67.88,67.88,0,0,0,9.46,0c4.67-.25,6.94-3.24,5-7.35-3.73-8.13-8-16-12-24a3.9,3.9,0,0,0-.56-.83c-3.64-4.31-21.13-2.71-23.69,2.25q-5.58,10.83-10.91,21.79c-2.35,4.88-.36,7.93,5.21,8.16,3,.12,6,0,9,0,2.41,0,4.56-.07,4.54,3.54s-2,4-4.8,3.94a18.18,18.18,0,0,0-5.91.55,8.91,8.91,0,0,0-6.5,9c0,5-.2,10,0,14.93.15,3.34-.73,4.71-4.38,4.72-9.35,0-9.06.07-12.62-8.52a68.4,68.4,0,0,1-5.22-29.49c.53-13.32-2.36-15.8-15.84-15.8h-89.17c-9.74,0-13.54,3.16-12.83,12.66,1,13.33-2.42,25.47-7.29,37.59-2.31,5.74-6.64,3.1-10.12,3.31-3.8.24-2.53-3.21-2.53-5.22q-.09-91.38-.14-182.75c0-4.13,1.12-5.32,5.28-5.3C1272.39,468.64,1306.76,468.57,1341.13,468.57Z" transform="translate(-1183.99 -444.01)"/><path class="cls-3" d="M1311.91,681.78c-19.75,0-39.5-.08-59.26.07-3.91,0-5.16-1-3.7-4.8,3.31-8.66,6.61-17.33,9.7-26.07,2.18-6.18,7.2-2.87,10.95-3.41s2.34,2.74,2.64,4.61c.48,3,2.06,4.81,5.27,4.81,8,0,15.94,0,23.9,0,3.77,0,5.48-2.21,5.21-5.75-.25-3.28,1.33-4.08,4.14-3.79,2.54.26,5.89-1.21,5.8,3.68-.08,3.88,2.11,6,6.32,5.93,7.3-.14,14.61-.12,21.91,0,4.19.06,6.28-1.87,6.08-6-.14-2.92,1.16-3.58,3.82-3.68,8.55-.3,8.52-.39,11.36,7.43,2.55,7,5.19,14,7.73,21,2.16,6,2.12,6-4.1,6Z" transform="translate(-1183.99 -444.01)"/><path class="cls-4" d="M1311.79,617.86c14.76,0,29.52.11,44.28-.08,3.74,0,5.07,1.2,4.85,4.86s-.15,7.29,0,10.94c.1,3.29-1.45,4.41-4.58,4.18-2.61-.19-5.6.54-5.41-3.73.2-4.81-2.64-6.31-7-6.26-6.8.07-13.6.11-20.4,0-4.46-.08-7.11,1.77-7,6.33.09,4.35-2.82,3.49-5.4,3.68-3.12.24-4.69-.79-4.49-4.14.24-4-2-5.77-5.78-5.8-7.47-.06-14.93,0-22.39,0-4.07,0-6.23,2.14-6.08,6.17.17,4.73-3.16,3.54-5.8,3.78-3.06.29-4.16-1-4-4a103.94,103.94,0,0,0,0-11.44c-.22-3.44.94-4.57,4.46-4.52C1281.93,618,1296.86,617.86,1311.79,617.86Z" transform="translate(-1183.99 -444.01)"/><path class="cls-5" d="M1415,615.7c-2.81,0-5.62,0-8.43,0-2.25,0-3-1.06-2-3.17,1.63-3.25,3.1-6.58,5-9.69s8.6-3,10.63,0a20.59,20.59,0,0,1,1.16,2.18C1426.91,615.72,1426.9,615.72,1415,615.7Z" transform="translate(-1183.99 -444.01)"/><path class="cls-4" d="M1414.57,652.19h-6.46c-5.41,0-7-2.29-5.58-7.69.55-2.11,2-1.87,3.45-1.88,5.8,0,11.61.14,17.4-.07,3.82-.14,3.77,2.13,3.73,4.8s.37,5.14-3.59,4.88C1420.55,652,1417.55,652.19,1414.57,652.19Z" transform="translate(-1183.99 -444.01)"/><path class="cls-6" d="M1257.56,719.94c.44-1.53-1.13-4.27,1.54-4.9,2.33-.56,6-1,7.16.21,2.49,2.59,1.37,6.59.63,9.87-.5,2.2-2.76,3.32-5.17,2.88-3.15-.57-4.29-2.8-4.17-5.83C1257.58,721.51,1257.56,720.85,1257.56,719.94Z" transform="translate(-1183.99 -444.01)"/><path class="cls-7" d="M1365.92,719.84c-.06,6-1.82,8.64-5.45,8.2-5.13-.62-4.33-4.72-4.71-8.29-.46-4.38,1.59-5,5.41-5.13C1365.85,714.47,1366.39,716.79,1365.92,719.84Z" transform="translate(-1183.99 -444.01)"/><path class="cls-1" d="M1341.13,478.26q27.88,0,55.76,0c6.71,0,8.09,1.41,8.11,8.2,0,9.46,0,18.92,0,28.37,0,6-1.39,7.36-7.26,7.45a63.45,63.45,0,0,1-6.47,0c-4.21-.38-7.52,0-9.21,5-1.31,3.81-5.17,5-9,5q-31.87.07-63.73,0c-4.79,0-8.45-2.17-10-6.76-1-2.88-2.72-3.26-5.26-3.17-3.65.12-7.3,0-11,0s-5.7-1.89-5.74-5.42q-.18-16.42,0-32.84c.05-4.47,2.92-5.81,7-5.79C1303.29,478.29,1322.21,478.26,1341.13,478.26Z" transform="translate(-1183.99 -444.01)"/><path class="cls-8" d="M1341.31,522.3H1313c-3.93,0-7.47-4.4-6.59-8.15.59-2.48,2.65-1.53,4.09-1.54,13.75-.07,27.51,0,41.27,0,6.47,0,12.93-.12,19.39.08,1.71.05,5.17-1.52,4.63,2.22-.42,3,.32,7.48-5.1,7.45C1360.87,522.25,1351.09,522.3,1341.31,522.3Z" transform="translate(-1183.99 -444.01)"/></g></svg>